PathFileType	4	(X/Y/Z)	C:/Users/beibeiliu/ov580/test_trc/User3\sequence.39_training_dense_right.trc
DataRate	CameraRate	NumFrames	NumMarkers	Units	OrigDataRate	OrigDataStartFrame	OrigNumFrames
120	120	24	19	mm	120	29	84
Frame#	Time	ThumbCMC			ThumbMCP			ThumbIP			ThumbTip			IndexMCP			IndexPIP			IndexTip			MiddleMCP			MiddlePIP			MiddleTip			RingMCP			RingPIP			RingTip			PinkyMCP			PinkyPIP			PinkyTip			BackHand1			BackHand2			BackHand3	
		X0	Y0	Z0	X1	Y1	Z1	X2	Y2	Z2	X3	Y3	Z3	X4	Y4	Z4	X5	Y5	Z5	X6	Y6	Z6	X7	Y7	Z7	X8	Y8	Z8	X9	Y9	Z9	X10	Y10	Z10	X11	Y11	Z11	X12	Y12	Z12	X13	Y13	Z13	X14	Y14	Z14	X15	Y15	Z15	X16	Y16	Z16	X17	Y17	Z17	X18	Y18	Z18	
28	0.233333	128.772	31.8393	19.3185	98.9049	38.3714	-1.28339	76.6642	35.3926	-17.8633	57.0858	23.1471	-31.1026	127.448	17.0312	-56.4946	112.798	23.3089	-76.239	86.8885	30.8826	-93.1087	120.175	-8.93132	-57.4197	98.7885	-3.56821	-78.0142	62.4338	7.09074	-82.8058	108.547	-26.0821	-45.5512	84.2323	-23.7044	-61.0297	56.6483	-11.6412	-56.6901	105.809	-44.4257	-24.8271	88.6985	-49.4285	-43.6139	65.2758	-45.7676	-52.7796	142.162	-26.9991	2.16469	150.32	-28.8791	32.5564	155.645	4.3957	7.51902	
29	0.241667	131.573	31.2284	20.7382	101.62	39.1279	0.843593	76.2153	35.6788	-21.4714	61.2281	15.264	-32.2128	126.487	13.4698	-57.4113	113.548	20.9398	-77.0974	91.2505	27.8845	-91.8419	119.643	-10.5293	-58.6335	94.1828	-4.1002	-76.9831	60.1467	13.1421	-73.9384	108.09	-26.0606	-42.6235	80.5602	-19.1303	-58.4426	55.1065	-3.35538	-48.3222	105.43	-42.1394	-23.8774	84.9022	-46.2968	-43.3587	62.0159	-40.4636	-49.9093	141.471	-27.8113	0.707555	150.662	-29.9844	31.8892	157.064	5.50398	11.0052	
30	0.25	137.858	31.5886	17.2946	108.926	39.5326	-2.91631	85.5044	34.449	-20.3457	69.6973	17.2597	-29.6778	135.878	15.1725	-55.746	118.414	17.5033	-78.7102	99.7017	25.3814	-93.5741	124.331	-11.6714	-57.2822	97.8809	-4.34358	-76.9695	65.8665	10.8782	-67.9446	111.29	-27.1008	-44.5861	85.4569	-18.0039	-58.0553	58.6866	-2.58953	-41.6068	108.6	-41.0274	-25.5296	89.5664	-41.6197	-43.7344	66.6783	-34.8819	-49.7421	144.789	-30.0519	2.29431	153.164	-29.2177	29.6695	162.693	1.56717	10.5167	
31	0.258333	141.7	29.3502	18.6878	111.698	37.9064	-4.65986	89.725	35.2643	-21.8511	70.4145	18.4132	-33.373	139.646	8.98763	-53.6432	123.927	17.4385	-80.0355	103.018	22.7624	-95.7061	128.942	-15.4566	-58.7373	104.106	-9.44251	-77.8487	69.9119	10.5101	-72.7564	116.317	-27.9275	-46.2193	89.851	-22.4396	-59.4373	67.4795	-5.01552	-51.0133	110.954	-45.4309	-24.0079	93.9283	-45.6954	-42.5819	70.7494	-35.3003	-52.0942	147.887	-30.0929	1.32232	158.963	-29.9812	31.302	163.981	-3.46016	10.49	
32	0.266667	145.426	30.8536	20.2392	114.801	40.1396	-4.90539	92.1628	41.5965	-25.0286	73.0678	26.3409	-36.4041	144.586	8.21194	-53.8528	128.623	19.2397	-81.7321	111.214	24.0353	-95.4439	136.161	-16.6036	-56.0628	114.089	-9.84032	-82.7148	79.3591	0.363821	-85.8101	124.081	-32.0108	-45.7891	101.67	-28.0669	-66.0471	71.397	-14.3441	-62.208	116.988	-46.9454	-24.1754	98.3664	-54.4457	-42.5137	75.1848	-42.941	-56.627	151.239	-35.1228	2.7496	156.587	-35.4866	30.422	166.052	-5.81242	7.6041	
33	0.275	149.673	26.9368	17.6676	123.817	41.3161	-1.65716	101.454	46.7818	-22.3878	80.5135	38.4801	-40.9604	152.451	8.16631	-59.1823	139.83	13.9821	-81.4472	120.959	17.6396	-99.0364	142.853	-23.0402	-56.1298	126.834	-17.0966	-85.5059	98.0076	-5.47647	-99.3303	130.264	-37.9875	-49.806	112.039	-36.7177	-70.0563	84.9988	-26.9958	-75.4768	122.311	-52.1773	-27.612	107.3	-59.236	-45.2884	83.7009	-55.795	-63.0906	157.521	-37.4153	1.77962	161.501	-35.9688	28.0151	172.492	-4.55026	10.7541	
34	0.283333	158.71	21.0141	15.2803	134.309	37.0723	-7.59475	115.342	39.025	-25.0257	94.0153	36.1518	-45.2417	162.229	-3.23897	-56.343	152.443	8.75255	-84.6978	137.326	13.0991	-100.522	154.876	-24.1143	-60.5813	139.111	-21.1301	-84.5837	108.038	-7.4671	-101.2	140.307	-39.0485	-48.0701	122.561	-38.3377	-68.605	94.9916	-21.4028	-80.3038	129.259	-53.677	-27.3588	114.562	-59.922	-46.6711	97.6999	-54.5352	-65.1081	160.17	-41.9376	5.8467	165.478	-39.2737	33.7458	179.543	-12.011	9.91306	
35	0.291667	171.658	15.5007	20.3652	147.991	28.8509	-10.605	128.764	31.9359	-31.3111	111.02	20.0971	-45.2523	178.878	-7.408	-57.0235	167.446	-3.15803	-78.9691	155.468	7.80902	-99.7821	164.217	-30.8645	-59.1289	147.336	-22.972	-83.442	118.106	-6.24314	-93.3745	146.438	-43.103	-44.1549	128.09	-31.6946	-68.4488	101.001	-12.9025	-68.9224	137.829	-55.141	-28.3709	125.905	-56.7382	-45.2851	106.254	-46.8297	-63.8402	171.194	-45.4164	7.29207	172.203	-44.317	39.0667	188.977	-21.5987	14.8455	
36	0.3	181.368	11.5675	17.6547	159.686	24.4243	-7.11547	139.139	22.7081	-35.8971	121.444	12.4807	-46.9354	187.719	-15.423	-53.7082	182.1	-5.30448	-79.107	166.677	1.20184	-98.2244	174.342	-31.6186	-57.2106	155.967	-24.2822	-79.8921	127.266	1.20178	-88.3609	154.586	-42.8512	-43.2194	132.697	-29.6751	-64.3039	112.268	-6.36331	-60.1342	143.385	-56.3089	-23.4102	128.691	-55.6	-50.2024	116.885	-44.0854	-62.9162	176.006	-47.5572	9.044	179.484	-47.066	35.3858	197.548	-24.2648	19.555	
37	0.308333	185.123	10.6357	22.5305	164.744	25.2624	-7.28115	143.936	21.9778	-36.2065	126.156	8.78676	-46.9176	193.482	-14.8157	-51.0974	186.588	-8.68347	-77.5157	175.296	5.18177	-99.8086	178.655	-35.0886	-55.8533	159.423	-26.5958	-79.713	130.913	-2.13546	-84.7487	159.954	-44.446	-43.1378	137.398	-28.9516	-63.4721	119.951	-6.27049	-58.4716	147.771	-57.9136	-26.0594	134.194	-54.372	-50.0264	119.996	-37.4213	-63.41	181.589	-50.887	10.8527	182.201	-51.5291	36.5626	202.088	-25.7425	15.0508	
38	0.316667	188.475	11.4816	22.2527	167.898	24.5182	-7.64556	148.161	22.3995	-35.7506	130.171	12.6636	-46.3544	195.682	-14.5014	-55.0426	189.867	-5.34155	-80.2396	174.594	5.10449	-100.384	180.204	-37.584	-54.2403	166.569	-25.9934	-80.9669	137.429	-1.09044	-89.8623	162.695	-42.8476	-46.9803	142.543	-34.3189	-64.158	123.129	-7.76258	-61.4621	151.421	-57.01	-24.6285	137.609	-57.5442	-46.0806	123.479	-40.6121	-61.3772	182.511	-49.2271	10.227	185.76	-48.5324	35.822	204.929	-27.057	16.1471	
39	0.325	190.69	15.0363	20.0753	168.768	23.6414	-11.8396	150.344	22.3403	-34.9464	132.325	16.8912	-46.9594	198.705	-13.1947	-50.1076	193.577	-5.35974	-78.7116	178.643	5.81508	-100.625	185.227	-35.8868	-57.5699	167.975	-28.5918	-84.6176	140.759	-8.02712	-96.4247	162.972	-46.9825	-47.909	146.561	-36.1086	-68.3883	124.723	-12.3345	-69.9479	153.878	-56.5165	-27.0009	137.677	-58.7859	-49.1094	120.979	-43.304	-64.3539	181.389	-51.924	8.97208	183.123	-49.8528	38.9295	206.405	-25.9294	15.2566	
40	0.333333	190.684	13.1255	15.8803	169.197	25.5604	-9.60373	150.976	29.7229	-34.1914	133.665	21.6798	-49.6898	199.365	-14.6371	-52.9691	190.751	-8.86475	-80.1128	175.453	3.07314	-103.883	183.173	-40.64	-56.0729	173.447	-32.7951	-83.0575	148.112	-16.4636	-105.553	164.206	-50.612	-43.9879	150.89	-43.806	-70.5445	128.09	-28.4375	-82.1845	149.88	-61.9824	-26.0742	135.9	-64.0275	-48.3788	119.672	-54.4683	-65.3627	183.139	-50.8859	6.87292	185.142	-51.3685	36.7104	202.529	-27.5051	15.4796	
41	0.341667	189.23	10.8395	16.9099	169.048	27.5231	-7.59947	150.133	27.9144	-34.0727	131.097	24.4643	-51.5341	199.12	-14.2712	-54.1029	190.127	-8.09532	-81.2245	178.513	2.6652	-101.364	183.546	-39.2274	-59.6669	170.05	-35.4724	-84.6069	147.071	-20.965	-107.817	163.907	-51.5517	-47.728	153.969	-46.5563	-69.9118	128.158	-31.6675	-86.9476	149.643	-62.2422	-23.6195	137.943	-63.7817	-50.361	120.853	-59.7219	-64.5456	183.089	-53.4222	9.19579	182.85	-50.7053	33.9344	204.873	-25.6163	15.5168	
42	0.35	188.917	8.16586	17.207	168.357	23.6647	-6.35028	149.286	27.1939	-34.2342	130.708	22.5035	-51.889	195.122	-18.0037	-55.884	188.563	-10.803	-78.3536	176.3	-0.102857	-99.668	180.5	-41.3882	-58.29	169.884	-35.8954	-81.4337	147.851	-18.7627	-104.898	166.003	-48.7756	-45.1758	150.868	-45.314	-70.2006	132.295	-29.6074	-83.6155	149.169	-63.1606	-23.0747	138.291	-66.9766	-45.1451	121.799	-58.4979	-65.9471	182.675	-53.7442	10.163	182.37	-52.9485	35.1971	204.073	-27.6738	13.3611	
43	0.358333	190.427	10.3764	19.0653	168.309	20.4248	-5.90016	150.168	23.4276	-30.7664	133.027	17.4989	-46.2985	196.051	-19.1763	-49.6034	189.906	-7.67981	-80.9469	178.166	1.09608	-98.5223	181.608	-38.1849	-52.0627	170.355	-28.9403	-81.8275	147.442	-11.8981	-99.0942	166.187	-49.2908	-42.4009	148.011	-39.637	-68.9078	125.216	-22.9952	-73.6097	150.71	-63.2931	-23.5834	141.389	-62.9588	-46.4807	123.731	-53.9946	-64.1867	183.031	-52.7776	11.6932	184.201	-52.9506	36.9166	202.563	-29.9201	19.4097	
44	0.366667	189.379	5.89068	18.6691	170.573	19.1805	-4.73578	151.932	20.3845	-29.7755	133.96	13.6085	-46.613	199.167	-17.4041	-53.3919	193.25	-7.91683	-76.4895	176.625	-0.295869	-98.3877	182.14	-36.263	-54.3386	166.037	-28.179	-80.2126	142.971	-5.7049	-94.0177	163.203	-46.836	-45.25	145.094	-34.017	-66.412	124.257	-13.489	-64.0916	154.003	-57.6064	-23.5792	140.701	-60.8097	-47.405	128.782	-48.0521	-64.5821	183.698	-55.0525	8.52734	183.023	-51.5167	41.4201	205.567	-28.5716	20.5791	
45	0.375	190.479	6.63239	19.2688	171.066	20.0767	-8.41854	153.473	22.9882	-34.0191	134.531	15.7244	-50.9711	198.797	-19.274	-49.0319	193.745	-6.48834	-76.5826	178.447	3.80663	-99.551	183.889	-35.7557	-53.989	170.781	-26.4297	-79.4016	142.695	-5.28298	-93.3869	165.822	-44.9203	-41.4732	145.333	-32.9012	-65.6838	124.939	-10.4909	-65.4103	152.609	-60.9643	-24.751	144.656	-60.2309	-45.1012	124.728	-51.8827	-65.2599	184.608	-51.4019	10.2085	183.042	-54.2944	42.0108	208.044	-27.3912	17.0207	
46	0.383333	190.624	10.4792	17.9094	170.551	21.1573	-7.52036	151.297	25.7645	-35.8603	135.933	20.6909	-47.6087	199.441	-14.4691	-51.0916	190.78	-8.02345	-77.9196	174.968	3.11031	-101.378	182.262	-36.2067	-54.1754	169.439	-26.3611	-82.1866	144.353	-8.37722	-97.8205	166.676	-45.8235	-42.9066	147.849	-36.3383	-68.6904	125.892	-15.854	-73.8358	151.066	-63.2467	-25.7006	138.507	-63.4304	-49.2303	128.106	-54.328	-66.6556	179.908	-54.6036	6.17436	182.829	-54.5725	36.0787	204.376	-29.64	16.9263	
47	0.391667	188.16	8.55229	20.3195	169.342	26.5696	-8.56326	152.152	32.5886	-33.0681	135.002	25.1481	-49.6104	198.059	-12.7028	-51.0647	188.293	-8.01359	-80.245	178.374	5.7022	-100.3	179.704	-38.157	-56.8577	168.768	-28.5453	-86.0859	148.785	-12.0475	-107.811	165.116	-47.9877	-43.4793	147.309	-43.4386	-71.4847	129.82	-27.8569	-84.3527	150.088	-61.5814	-25.9685	142.073	-63.6163	-47.9226	128.944	-62.0672	-67.7392	180.513	-54.8086	8.74971	183.769	-51.2378	38.6916	203.549	-27.1296	19.2048	
48	0.4	187.118	12.2209	18.3197	168.537	29.6796	-6.55884	151.034	36.312	-33.6977	135.733	35.9567	-47.4752	194.607	-13.9049	-57.4988	191.191	-3.75086	-78.5147	176.875	2.753	-100.236	178.921	-37.8453	-57.8982	171.952	-29.6036	-85.0307	154.133	-17.4276	-111.438	165.539	-47.2368	-46.4086	152.414	-46.5981	-69.7621	129.367	-34.7051	-92.2718	147.961	-60.6217	-24.8539	136.689	-68.0831	-45.9166	128.052	-65.3542	-67.1083	178.385	-52.7042	9.42134	180.855	-52.8846	35.4154	202.087	-26.3986	16.9887	
49	0.408333	185.629	10.1012	17.0102	166.988	28.1193	-10.5069	151.998	39.5084	-29.9109	134.736	37.7576	-48.8801	193.059	-14.0205	-53.4326	186.189	-4.12229	-82.8572	174.356	5.26037	-103.986	181.431	-34.4012	-54.3473	167.682	-31.6017	-86.8258	153.472	-18.1249	-109.411	160.898	-49.0053	-46.7532	152.479	-44.1915	-70.8924	130.106	-33.5885	-92.3253	148.477	-57.6919	-25.2228	134.489	-65.5513	-45.9695	125.788	-64.7016	-66.1351	177.559	-52.6904	6.58913	179.755	-49.225	34.5745	201.47	-27.5558	17.1836	
50	0.416667	187.446	12.3887	15.8926	167.528	29.5214	-7.90448	151.432	35.4162	-29.8675	132.85	32.0001	-50.1437	195.374	-13.7045	-54.6944	188.796	-4.72351	-80.8911	176.596	4.11648	-100.94	179.141	-34.6127	-58.7515	168.678	-26.7788	-82.9126	143.679	-13.7287	-103.618	159.47	-48.3285	-45.3283	147.021	-41.4945	-68.9187	122.166	-22.917	-82.7475	146.267	-57.1023	-25.891	136.72	-60.3059	-48.351	117.292	-56.771	-64.7937	178.718	-51.0333	4.25371	180.777	-51.0722	34.3094	199.717	-28.3829	18.5784	
51	0.425	189.043	12.3747	20.142	167.686	22.6044	-10.3398	149.133	25.222	-30.5511	130.485	18.1635	-48.1652	193.366	-17.7741	-50.743	186.552	-9.22009	-76.8203	176.224	4.30578	-100.402	176.679	-35.9186	-52.5795	163.72	-25.8562	-80.4598	137.545	-0.59703	-95.1758	155.669	-47.0994	-42.3122	140.097	-31.4952	-67.8191	116.834	-9.55063	-67.1433	145.051	-56.077	-26.1574	131.136	-57.8323	-44.4402	114.896	-43.9116	-65.9562	177.178	-52.3232	6.08304	177.017	-53.3204	37.9585	202.346	-29.1968	18.2917	
